<svg id="Capa_1" data-name="Capa 1" xmlns="http://www.w3.org/2000/svg" xmlns:xlink="http://www.w3.org/1999/xlink" viewBox="0 0 90.71 108.89"><defs><style>.cls-1{fill:url(#linear-gradient);}.cls-2,.cls-3{opacity:0.91;}.cls-2{fill:url(#linear-gradient-2);}.cls-3{fill:url(#linear-gradient-3);}.cls-4{font-size:22.81px;font-family:Poppins-Regular, Poppins;}.cls-4,.cls-5{fill:#3a3a39;}.cls-5{font-size:10.02px;font-family:Poppins-Thin, Poppins;font-weight:200;letter-spacing:0.08em;}</style><linearGradient id="linear-gradient" x1="56.69" y1="78.1" x2="56.69" y2="8.18" gradientUnits="userSpaceOnUse"><stop offset="0" stop-color="#4bbab2"/><stop offset="0.82" stop-color="#524193"/></linearGradient><linearGradient id="linear-gradient-2" x1="79.37" y1="78.4" x2="79.37" y2="32.39" gradientUnits="userSpaceOnUse"><stop offset="0" stop-color="#e8ad02"/><stop offset="0.76" stop-color="#e72366"/></linearGradient><linearGradient id="linear-gradient-3" x1="118.14" y1="78.4" x2="118.14" y2="32.39" gradientTransform="matrix(-1, 0, 0, 1, 152.16, 0)" gradientUnits="userSpaceOnUse"><stop offset="0" stop-color="#46c1f1"/><stop offset="0.82" stop-color="#68b65b"/></linearGradient></defs><path class="cls-1" d="M78.94,43.14c0,19.3-22.25,35-22.25,35s-22.25-15.66-22.25-35,10-35,22.25-35S78.94,23.83,78.94,43.14Z" transform="translate(-11.34 -8.18)"/><path class="cls-2" d="M90,69.31C78.34,80.92,56.69,78.1,56.69,78.1s2.38-21.86,13.22-34.19c10.57-12,22.07-14.62,28.83-7.86S101.57,57.7,90,69.31Z" transform="translate(-11.34 -8.18)"/><path class="cls-3" d="M23.43,69.31C35,80.92,56.69,78.1,56.69,78.1S54.31,56.24,43.47,43.91c-10.56-12-22.07-14.62-28.83-7.86S11.82,57.7,23.43,69.31Z" transform="translate(-11.34 -8.18)"/><text class="cls-4" transform="translate(11.29 95.84)">Matna</text><text class="cls-5" transform="translate(30.67 79.28)">studio</text></svg>